<?xml version="1.0" encoding="UTF-8"?>
<svg version="1.1" xmlns="http://www.w3.org/2000/svg" width="385" height="190">
<path d="M0 0 C127.05 0 254.1 0 385 0 C385 62.7 385 125.4 385 190 C257.95 190 130.9 190 0 190 C0 127.3 0 64.6 0 0 Z " fill="#FDFEFE" transform="translate(0,0)"/>
<path d="M0 0 C3.40447489 0.76509549 5.53446352 1.87738395 8.375 3.9375 C9.25800781 4.57171875 10.14101562 5.2059375 11.05078125 5.859375 C12.51064453 6.91898438 12.51064453 6.91898438 14 8 C15.61274775 9.1533831 17.2255429 10.30670134 18.83959961 11.45825195 C20.0010143 12.28689344 21.16197497 13.11617158 22.32250977 13.94604492 C37.99827427 25.20973531 37.99827427 25.20973531 54 36 C52.32508169 40.88036541 49.63208039 44.99152948 46.875 49.3125 C46.40707031 50.05306641 45.93914062 50.79363281 45.45703125 51.55664062 C44.30835804 53.37341968 43.15467631 55.18703037 42 57 C39.366109 55.99764609 37.19389581 55.14689076 34.9375 53.4375 C32.92312271 51.94296201 31.44506011 51.43661788 29 51 C30.22053859 54.66161578 31.36782304 55.16270474 34.5625 57.1875 C35.80193359 57.98220703 35.80193359 57.98220703 37.06640625 58.79296875 C37.70449219 59.19128906 38.34257812 59.58960938 39 60 C38.34 61.65 37.68 63.3 37 65 C32.20972994 65 30.11253479 63.28673839 26.4375 60.5625 C22.00790548 57.26822629 22.00790548 57.26822629 17 55 C17 56.32 17 57.64 17 59 C17.53109375 59.24492188 18.0621875 59.48984375 18.609375 59.7421875 C21.6382465 61.33580943 24.41223973 63.21259634 27.25 65.125 C28.32765625 65.84945312 29.4053125 66.57390625 30.515625 67.3203125 C31.33546875 67.87460938 32.1553125 68.42890625 33 69 C32.39816251 71.02045442 31.72693904 73.02111039 31 75 C30.01 75.495 30.01 75.495 29 76 C27.96939453 75.24203125 27.96939453 75.24203125 26.91796875 74.46875 C26.01691406 73.8190625 25.11585938 73.169375 24.1875 72.5 C23.29417969 71.8503125 22.40085937 71.200625 21.48046875 70.53125 C19.06037916 68.73735342 19.06037916 68.73735342 16 69 C17.26540052 72.79620155 18.78218431 73.48678188 22.0625 75.6875 C22.98160156 76.31011719 23.90070313 76.93273437 24.84765625 77.57421875 C25.55792969 78.04472656 26.26820313 78.51523438 27 79 C26.34 80.98 25.68 82.96 25 85 C20.8765054 85 20.42691596 84.93823898 17.43359375 82.59375 C16.78326172 82.09746094 16.13292969 81.60117188 15.46289062 81.08984375 C14.79451172 80.56519531 14.12613281 80.04054688 13.4375 79.5 C12.10787104 78.46230299 10.77342103 77.43074554 9.43359375 76.40625 C8.84634521 75.94541016 8.25909668 75.48457031 7.65405273 75.00976562 C5.89622518 73.73947121 5.89622518 73.73947121 3 74 C4.37546529 77.26443763 5.75977587 78.83985058 8.6953125 80.796875 C9.76845703 81.52197266 9.76845703 81.52197266 10.86328125 82.26171875 C11.60964844 82.75285156 12.35601562 83.24398437 13.125 83.75 C13.87910156 84.25660156 14.63320312 84.76320313 15.41015625 85.28515625 C17.26816252 86.53166679 19.13137547 87.76948884 21 89 C19.79641403 92.42559084 18.64107354 94.53258609 16 97 C15.3702124 96.56131592 14.7404248 96.12263184 14.09155273 95.6706543 C11.21130318 93.66979755 8.32450248 91.67859924 5.4375 89.6875 C3.9515332 88.65206055 3.9515332 88.65206055 2.43554688 87.59570312 C-2.57445355 84.15028755 -7.27940069 81.09407633 -13 79 C-11.66680274 82.10707998 -10.42772284 83.71485144 -7.62109375 85.5859375 C-6.95078125 86.03928467 -6.28046875 86.49263184 -5.58984375 86.9597168 C-4.52443359 87.66028198 -4.52443359 87.66028198 -3.4375 88.375 C-2.71820313 88.85815674 -1.99890625 89.34131348 -1.2578125 89.83911133 C0.82274865 91.2343525 2.91063308 92.61799519 5 94 C6.00933594 94.67675781 7.01867187 95.35351562 8.05859375 96.05078125 C10.03401101 97.37510098 12.01357923 98.69227299 14 100 C13.34 101.98 12.68 103.96 12 106 C7.75799834 104.53131434 4.5484287 102.40006189 0.9375 99.75 C-0.30779282 98.84395024 -1.55393756 97.93907062 -2.80078125 97.03515625 C-3.47318848 96.5467627 -4.1455957 96.05836914 -4.83837891 95.55517578 C-8.77748034 92.72119384 -12.76771553 89.96028739 -16.75 87.1875 C-23.51437256 82.46500661 -30.24675432 77.70130387 -36.9375 72.875 C-37.67645508 72.34285889 -38.41541016 71.81071777 -39.17675781 71.26245117 C-42.86127613 68.59584314 -46.4780047 65.88100594 -50 63 C-48.54593318 58.49654733 -46.02049984 55.36556507 -42.9375 51.875 C-41.93804176 50.71940716 -40.93935489 49.56314676 -39.94140625 48.40625 C-39.44398926 47.83261719 -38.94657227 47.25898437 -38.43408203 46.66796875 C-34.86750032 42.51970756 -31.45208498 38.24344742 -28 34 C-26.58375089 32.27049133 -25.16707527 30.54133183 -23.75 28.8125 C-21.07646348 25.54693255 -18.41074209 22.27525149 -15.75390625 18.99609375 C-15.18510742 18.29444092 -14.61630859 17.59278809 -14.03027344 16.86987305 C-12.91678189 15.49573332 -11.80410074 14.12093636 -10.69238281 12.74536133 C-7.19822792 8.43385078 -3.62823964 4.1994018 0 0 Z " fill="#0574BC" transform="translate(131,28)"/>
<path d="M0 0 C1 1 1 1 1.375 3.875 C1 7 1 7 -0.88671875 8.55859375 C-3.64312251 9.83477065 -5.78739549 10.45366753 -8.73046875 11.04296875 C-19.56638218 12.95486439 -19.56638218 12.95486439 -28.14453125 19.24609375 C-30.32356062 22.55008839 -32.05334061 26.07377839 -33.77636719 29.63183594 C-36.05656323 34.04482509 -38.87894851 38.11728988 -41.625 42.25 C-42.72459138 43.94229717 -43.82356622 45.63499513 -44.921875 47.328125 C-46.78784075 50.18127659 -48.68259076 53.00614824 -50.640625 55.796875 C-51.37796875 56.85390625 -52.1153125 57.9109375 -52.875 59 C-53.51179688 59.886875 -54.14859375 60.77375 -54.8046875 61.6875 C-56.21452599 63.89221986 -56.21452599 63.89221986 -55.76171875 66.171875 C-55.18895773 67.54650145 -54.57338868 68.90341222 -53.9375 70.25 C-52.69754124 73.88721237 -52.4068965 77.22637899 -53 81 C-55.39839473 85.79678945 -58.18278335 88.63683712 -63 91 C-67.77023745 91.83928774 -71.05778817 91.48855428 -75.375 89.25 C-78.75593106 86.35205909 -80.59179295 84.22462114 -82 80 C-82.06740865 78.43881572 -82.08514456 76.8749748 -82.0625 75.3125 C-82.05347656 74.50425781 -82.04445312 73.69601563 -82.03515625 72.86328125 C-82.02355469 72.24839844 -82.01195312 71.63351563 -82 71 C-82.69673828 70.75233887 -83.39347656 70.50467773 -84.11132812 70.24951172 C-87.42694688 68.81532166 -90.2161141 67.01723415 -93.21875 65.0078125 C-93.79911011 64.62060028 -94.37947021 64.23338806 -94.97741699 63.83444214 C-96.19913792 63.01795585 -97.41937027 62.19923827 -98.63818359 61.37841797 C-100.49096767 60.13108077 -102.34854779 58.89116879 -104.20703125 57.65234375 C-115.5615528 50.05142563 -115.5615528 50.05142563 -119 47 C-119.4375 44.375 -119.4375 44.375 -119 42 C-117 40 -117 40 -114.16455078 39.68701172 C-110.57540499 40.04199435 -109.19424356 40.83068226 -106.3671875 43.0078125 C-105.50706055 43.64750977 -104.64693359 44.28720703 -103.76074219 44.94628906 C-102.84969727 45.62401367 -101.93865234 46.30173828 -101 47 C-97.07201055 49.67124493 -93.09783188 52.27104542 -89.125 54.875 C-87.59746094 55.88820313 -87.59746094 55.88820313 -86.0390625 56.921875 C-85.059375 57.56382812 -84.0796875 58.20578125 -83.0703125 58.8671875 C-82.19133301 59.44581543 -81.31235352 60.02444336 -80.40673828 60.62060547 C-78.20289293 61.88371424 -76.50653403 62.65294144 -74 63 C-73.67 62.67 -73.34 62.34 -73 62 C-70.66702567 61.95907063 -68.33294775 61.95758277 -66 62 C-65.73533936 61.28118652 -65.47067871 60.56237305 -65.19799805 59.82177734 C-63.9728895 56.93614365 -62.53050845 54.48426278 -60.83203125 51.8515625 C-60.19289795 50.85656738 -59.55376465 49.86157227 -58.89526367 48.83642578 C-58.20795166 47.77665527 -57.52063965 46.71688477 -56.8125 45.625 C-56.10649658 44.5304248 -55.40049316 43.43584961 -54.6730957 42.30810547 C-53.19664479 40.01998722 -51.71716855 37.73386529 -50.23535156 35.44921875 C-48.76241894 33.17804029 -47.29289971 30.90472597 -45.82714844 28.62890625 C-43.78470365 25.45826285 -41.73708007 22.29103449 -39.6875 19.125 C-39.06012939 18.15127441 -38.43275879 17.17754883 -37.78637695 16.17431641 C-37.20073975 15.27374512 -36.61510254 14.37317383 -36.01171875 13.4453125 C-35.50084717 12.65656738 -34.98997559 11.86782227 -34.46362305 11.05517578 C-30.10358635 4.93294244 -24.67463935 4.17912428 -17.625 2.25 C-16.48804688 1.92128906 -15.35109375 1.59257813 -14.1796875 1.25390625 C-13.08140625 0.94839844 -11.983125 0.64289063 -10.8515625 0.328125 C-9.84947754 0.0487207 -8.84739258 -0.23068359 -7.81494141 -0.51855469 C-4.84154135 -1.02710151 -2.87801368 -0.84568439 0 0 Z " fill="#272324" transform="translate(214,78)"/>
<path d="M0 0 C4.27195995 2.6253801 7.25181344 6.40387783 8.82421875 11.12109375 C8.97271315 13.73973536 9.05522145 16.31434145 9.07421875 18.93359375 C9.09484375 19.63291016 9.11546875 20.33222656 9.13671875 21.05273438 C9.17944204 26.76163361 7.98433965 30.73042631 4.140625 34.984375 C3.56183594 35.46261719 2.98304688 35.94085938 2.38671875 36.43359375 C1.52240234 37.17029297 1.52240234 37.17029297 0.640625 37.921875 C-4.47249886 41.29763634 -11.31425033 40.6518623 -17.17578125 40.12109375 C-22.14742988 38.71216083 -25.76547205 35.28669958 -28.296875 30.8671875 C-29.51506688 27.06101463 -29.64559046 23.4740497 -29.67578125 19.49609375 C-29.682146 18.76753174 -29.68851074 18.03896973 -29.69506836 17.28833008 C-29.56328381 11.69799116 -28.35531477 7.48390623 -24.45703125 3.2578125 C-23.86921875 2.77957031 -23.28140625 2.30132812 -22.67578125 1.80859375 C-22.08796875 1.31746094 -21.50015625 0.82632813 -20.89453125 0.3203125 C-15.08583588 -3.73257268 -6.22619327 -2.63950181 0 0 Z " fill="#0B74BC" transform="translate(212.17578125,108.87890625)"/>
<path d="M0 0 C3.58914579 0.35498263 4.97030722 1.14367054 7.79736328 3.32080078 C8.65749023 3.96049805 9.51761719 4.60019531 10.40380859 5.25927734 C11.31485352 5.93700195 12.22589844 6.61472656 13.16455078 7.31298828 C17.09254023 9.98423321 21.0667189 12.58403371 25.03955078 15.18798828 C26.56708984 16.20119141 26.56708984 16.20119141 28.12548828 17.23486328 C29.10517578 17.87681641 30.08486328 18.51876953 31.09423828 19.18017578 C31.97321777 19.75880371 32.85219727 20.33743164 33.7578125 20.93359375 C36.78233052 22.66706168 38.86928046 23.65585395 42.28955078 22.75048828 C42.90830078 22.60611328 43.52705078 22.46173828 44.16455078 22.31298828 C44.82455078 22.97298828 45.48455078 23.63298828 46.16455078 24.31298828 C45.17455078 24.97298828 44.18455078 25.63298828 43.16455078 26.31298828 C43.79103516 26.56693359 44.41751953 26.82087891 45.06298828 27.08251953 C45.88025391 27.42669922 46.69751953 27.77087891 47.53955078 28.12548828 C48.75771484 28.63015625 48.75771484 28.63015625 50.00048828 29.14501953 C52.16455078 30.31298828 52.16455078 30.31298828 54.16455078 33.31298828 C54.55842866 35.63686775 54.89941163 37.97092577 55.16455078 40.31298828 C58.13455078 39.81798828 58.13455078 39.81798828 61.16455078 39.31298828 C60.1424993 44.67875855 57.79485149 47.17571193 53.44970703 50.17236328 C49.63708327 52.07541651 46.29675968 52.21595245 42.16455078 51.31298828 C37.04692261 48.6594033 33.98749136 45.78181002 32.16455078 40.31298828 C32.09714213 38.751804 32.07940622 37.18796308 32.10205078 35.62548828 C32.11107422 34.81724609 32.12009766 34.00900391 32.12939453 33.17626953 C32.14099609 32.56138672 32.15259766 31.94650391 32.16455078 31.31298828 C31.4678125 31.06532715 30.77107422 30.81766602 30.05322266 30.5625 C26.7376039 29.12830994 23.94843668 27.33022244 20.94580078 25.32080078 C20.36544067 24.93358856 19.78508057 24.54637634 19.18713379 24.14743042 C17.96541287 23.33094413 16.74518051 22.51222655 15.52636719 21.69140625 C13.67358311 20.44406905 11.81600299 19.20415707 9.95751953 17.96533203 C-1.39700202 10.36441391 -1.39700202 10.36441391 -4.83544922 7.31298828 C-5.27294922 4.68798828 -5.27294922 4.68798828 -4.83544922 2.31298828 C-2.83544922 0.31298828 -2.83544922 0.31298828 0 0 Z " fill="#262223" transform="translate(99.83544921875,117.68701171875)"/>
<path d="M0 0 C4.37908661 1.27391611 6.20304276 2.87204174 8.375 6.75 C10.44595549 10.89191099 10 12.7694965 10 18 C3.4 18 -3.2 18 -10 18 C-9.34 19.98 -8.68 21.96 -8 24 C-4.58343976 24.16677282 -4.58343976 24.16677282 -1 24 C-0.34 23.34 0.32 22.68 1 22 C3.68839385 21.73008094 6.29141936 21.91262643 9 22 C7.64844718 26.42326378 5.80109562 28.40412982 2 31 C-2.35089505 32.45029835 -6.26116542 32.48525616 -10.6875 31.25 C-14.36617951 29.26152459 -16.41195684 27.20548848 -18.25 23.4375 C-19.61902516 17.16280134 -20.17047403 11.34094805 -17.25 5.5 C-11.88254527 -0.46383859 -7.81614903 -0.79409352 0 0 Z " fill="#197DC0" transform="translate(325,117)"/>
<path d="M0 0 C5.67458259 1.89152753 9.32628019 5.65256038 12 11 C12.45296092 17.35198686 12.13431857 22.99722901 10 29 C3.38455409 24.90533329 -3.01275933 20.61882885 -9.2734375 16 C-13.46394421 12.92616127 -17.73095271 9.96333001 -22 7 C-21.34 6.67 -20.68 6.34 -20 6 C-19.731875 5.34 -19.46375 4.68 -19.1875 4 C-18 2 -18 2 -15.5 1.3125 C-14.675 1.209375 -13.85 1.10625 -13 1 C-9.06751678 -0.96624161 -4.29617694 -0.32860277 0 0 Z " fill="#F4F6F7" transform="translate(164,28)"/>
<path d="M0 0 C3.72801733 2.08768971 5.41244623 4.1008363 7 8 C7.22705078 10.56542969 7.22705078 10.56542969 7.1953125 13.421875 C7.18886719 14.44667969 7.18242187 15.47148437 7.17578125 16.52734375 C7.15902344 17.59082031 7.14226562 18.65429688 7.125 19.75 C7.11597656 20.82894531 7.10695313 21.90789062 7.09765625 23.01953125 C7.07411305 25.67991278 7.04122799 28.33984336 7 31 C4.66705225 31.04241723 2.33297433 31.04092937 0 31 C-1.61081449 29.38918551 -1.16557926 27.60458101 -1.2109375 25.37890625 C-1.23929687 24.44369141 -1.26765625 23.50847656 -1.296875 22.54492188 C-1.34885111 20.56073375 -1.39315436 18.57632941 -1.4296875 16.59179688 C-1.460625 15.65529297 -1.4915625 14.71878906 -1.5234375 13.75390625 C-1.54325684 12.89095947 -1.56307617 12.0280127 -1.58349609 11.13891602 C-1.72094238 10.43307373 -1.85838867 9.72723145 -2 9 C-5.23112508 6.4452998 -5.23112508 6.4452998 -11 7 C-11.33 14.92 -11.66 22.84 -12 31 C-14.64 31 -17.28 31 -20 31 C-20.14584726 27.12539922 -20.23425444 23.25150883 -20.3125 19.375 C-20.35439453 18.28058594 -20.39628906 17.18617188 -20.43945312 16.05859375 C-20.57762132 6.93949276 -20.57762132 6.93949276 -17.66796875 3.2890625 C-12.55151596 -1.10074912 -6.45180991 -0.63646233 0 0 Z " fill="#0773BB" transform="translate(297,117)"/>
<path d="M0 0 C3.91075925 1.98968453 5.57689098 3.36533646 8 7 C8.22705078 9.54370117 8.22705078 9.54370117 8.1953125 12.54296875 C8.18886719 13.61611328 8.18242187 14.68925781 8.17578125 15.79492188 C8.15902344 16.91447266 8.14226562 18.03402344 8.125 19.1875 C8.11597656 20.31865234 8.10695312 21.44980469 8.09765625 22.61523438 C8.07406862 25.41036828 8.041153 28.20507845 8 31 C5.69 31 3.38 31 1 31 C-0.1739553 28.65208941 -0.16921612 27.11746336 -0.24609375 24.5 C-0.27896484 23.613125 -0.31183594 22.72625 -0.34570312 21.8125 C-0.40689702 19.9376233 -0.46418943 18.06261519 -0.51757812 16.1875 C-0.55173828 15.300625 -0.58589844 14.41375 -0.62109375 13.5 C-0.6461499 12.6853125 -0.67120605 11.870625 -0.69702148 11.03125 C-0.82751128 8.77578696 -0.82751128 8.77578696 -3 7 C-5.31 7 -7.62 7 -10 7 C-10.33 14.92 -10.66 22.84 -11 31 C-13.64 31 -16.28 31 -19 31 C-19.11643304 27.10441912 -19.18732909 23.20928742 -19.25 19.3125 C-19.28351563 18.20970703 -19.31703125 17.10691406 -19.3515625 15.97070312 C-19.45027874 7.80193448 -19.45027874 7.80193448 -17.234375 3.85546875 C-11.85313439 -0.61321882 -6.84668378 -0.82239472 0 0 Z " fill="#0673BC" transform="translate(244,117)"/>
<path d="M0 0 C4.00706608 2.11694057 6.38715386 3.76261333 8 8 C8.61250946 12.99034027 9.20785096 18.53041626 6.94921875 23.1484375 C4.68394208 25.88815265 2.56903893 27.78421861 -0.98828125 28.2734375 C-5.43801478 28.46787964 -7.35399301 28.49796372 -11 25.6875 C-14.96660889 20.3573693 -14.62631766 14.4070604 -14 8 C-11.4475433 1.36613977 -6.84466795 -0.69606793 0 0 Z " fill="#F9FBFC" transform="translate(205,114)"/>
<path d="M0 0 C3.66666667 0 7.33333333 0 11 0 C12.155 -0.04125 13.31 -0.0825 14.5 -0.125 C18 0 18 0 20 2 C20.125 4.625 20.125 4.625 20 7 C17.03 7 14.06 7 11 7 C11 6.01 11 5.02 11 4 C10.34 4 9.68 4 9 4 C9 15.88 9 27.76 9 40 C6.03 40 3.06 40 0 40 C0 26.8 0 13.6 0 0 Z " fill="#0973BC" transform="translate(255,108)"/>
<path d="M0 0 C3.49696021 0.33449185 4.72645261 0.98173266 7.45703125 3.11328125 C10.74104849 5.58133101 14.04966672 7.9035878 17.53515625 10.07421875 C18.30432373 10.55528076 19.07349121 11.03634277 19.8659668 11.53198242 C21.41177375 12.49357784 22.96266386 13.44705534 24.51879883 14.3918457 C25.23189209 14.84003662 25.94498535 15.28822754 26.6796875 15.75 C27.32301025 16.14533936 27.96633301 16.54067871 28.62915039 16.94799805 C30.49836861 18.61665249 30.76922627 19.86372334 31.14453125 22.30078125 C29.69046875 22.98140625 29.69046875 22.98140625 28.20703125 23.67578125 C25.07373543 24.95864346 25.07373543 24.95864346 24.14453125 27.30078125 C20.33396815 24.77688204 16.52543399 22.24996097 12.71875 19.72021484 C11.42340562 18.86000494 10.12751019 18.00062423 8.83105469 17.14208984 C6.9679456 15.90810105 5.10683686 14.67114642 3.24609375 13.43359375 C2.66582428 13.05018829 2.08555481 12.66678284 1.48770142 12.27175903 C-0.82105943 10.73280026 -2.88766807 9.26858193 -4.85546875 7.30078125 C-5.10546875 4.80078125 -5.10546875 4.80078125 -4.85546875 2.30078125 C-2.85546875 0.30078125 -2.85546875 0.30078125 0 0 Z " fill="#242122" transform="translate(99.85546875,117.69921875)"/>
<path d="M0 0 C4.38462134 0.50109958 6.8000997 1.98295115 10 5 C10 5.66 10 6.32 10 7 C11.65 7 13.3 7 15 7 C14.67 7.66 14.34 8.32 14 9 C12.68 8.67 11.36 8.34 10 8 C11.33319726 11.10707998 12.57227716 12.71485144 15.37890625 14.5859375 C16.384375 15.26595825 16.384375 15.26595825 17.41015625 15.9597168 C18.12042969 16.42676025 18.83070312 16.89380371 19.5625 17.375 C20.28179687 17.85815674 21.00109375 18.34131348 21.7421875 18.83911133 C23.82274865 20.2343525 25.91063308 21.61799519 28 23 C29.00933594 23.67675781 30.01867187 24.35351562 31.05859375 25.05078125 C33.03401101 26.37510098 35.01357923 27.69227299 37 29 C36.34 30.98 35.68 32.96 35 35 C30.563476 33.49341305 27.04731067 31.06765453 23.3125 28.3125 C22.07711663 27.41496017 20.84143725 26.51782765 19.60546875 25.62109375 C18.99880371 25.17878418 18.39213867 24.73647461 17.76708984 24.28076172 C15.24023196 22.44933088 12.68449035 20.66043621 10.125 18.875 C8.92230469 18.03582031 8.92230469 18.03582031 7.6953125 17.1796875 C7.13585937 16.79039063 6.57640625 16.40109375 6 16 C6.66 14.68 7.32 13.36 8 12 C7.236875 11.79375 6.47375 11.5875 5.6875 11.375 C2.11490618 9.5471613 1.40446572 7.69596243 0 4 C0 2.68 0 1.36 0 0 Z " fill="#0D75BB" transform="translate(108,99)"/>
<path d="M0 0 C1.98 0 3.96 0 6 0 C8 2 8 2 8.22705078 4.88916016 C8.21134033 6.69586182 8.21134033 6.69586182 8.1953125 8.5390625 C8.18886719 9.84101562 8.18242187 11.14296875 8.17578125 12.484375 C8.15906929 13.86458595 8.14213939 15.24479429 8.125 16.625 C8.11497006 18.01301452 8.10584423 19.40103589 8.09765625 20.7890625 C8.07401863 24.19288026 8.04106867 27.59635506 8 31 C5.36 31 2.72 31 0 31 C0 20.77 0 10.54 0 0 Z " fill="#0172BD" transform="translate(267,117)"/>
<path d="M0 0 C4.92680554 0.11807159 8.07695761 0.25002805 12 3.4375 C16.09373628 8.68259961 15 8.6165602 15 17 C4.605 17.495 4.605 17.495 -6 18 C-7.9161229 14.16775421 -8.10833493 13.00839226 -8 9 C-8.33 8.67 -8.66 8.34 -9 8 C-8.67 7.01 -8.34 6.02 -8 5 C-6.68 5 -5.36 5 -4 5 C-4.33 7.64 -4.66 10.28 -5 13 C-1.04 13 2.92 13 7 13 C5.61986686 8.17535281 5.61986686 8.17535281 3.2734375 6.85546875 C2.64695312 6.63503906 2.02046875 6.41460937 1.375 6.1875 C0.26125 5.795625 -0.8525 5.40375 -2 5 C-1.01 4.67 -0.02 4.34 1 4 C0.67 2.68 0.34 1.36 0 0 Z M-11 8 C-10.34 8 -9.68 8 -9 8 C-9.33 8.99 -9.66 9.98 -10 11 C-10.33 10.01 -10.66 9.02 -11 8 Z " fill="#0571BA" transform="translate(319,117)"/>
<path d="M0 0 C1.94140625 0.3828125 1.94140625 0.3828125 4.44140625 2.0078125 C6.42338939 5.14595248 6.61204683 6.73154715 5.94140625 10.3828125 C3.87890625 13.3203125 3.87890625 13.3203125 0.94140625 15.3828125 C-2.60220618 15.3828125 -4.92450966 15.04131294 -7.99609375 13.2578125 C-9.70896332 10.23510149 -9.41587238 7.77695945 -9.05859375 4.3828125 C-7.24997024 -0.02570731 -4.5929287 -0.25375297 0 0 Z " fill="#F7F7F7" transform="translate(148.05859375,146.6171875)"/>
<path d="M0 0 C0.3403125 1.11375 0.3403125 1.11375 0.6875 2.25 C1.84031479 5.18836543 1.84031479 5.18836543 4.625 7.0625 C5.40875 7.701875 6.1925 8.34125 7 9 C7 10.32 7 11.64 7 13 C3.04 13 -0.92 13 -5 13 C-4.67 10.36 -4.34 7.72 -4 5 C-5.98 5.99 -5.98 5.99 -8 7 C-7.01 7.66 -6.02 8.32 -5 9 C-5.99 9 -6.98 9 -8 9 C-8 11.64 -8 14.28 -8 17 C-8.66 17.33 -9.32 17.66 -10 18 C-10.33 18.99 -10.66 19.98 -11 21 C-11.66 20.67 -12.32 20.34 -13 20 C-13.62460568 10.24921136 -13.62460568 10.24921136 -11.25 5.5 C-7.57791603 1.4199067 -5.65619514 -0.4713496 0 0 Z M-11 8 C-10.01 9.485 -10.01 9.485 -9 11 C-9 10.01 -9 9.02 -9 8 C-9.66 8 -10.32 8 -11 8 Z " fill="#1278BF" transform="translate(319,117)"/>
<path d="M0 0 C2.375 1 2.375 1 4 3 C4.65964122 6.55761554 4.63041883 9.73916234 3 13 C-0.26083766 14.63041883 -3.44238446 14.65964122 -7 14 C-9.6923481 11.81246717 -9.93936827 10.41576045 -10.4375 7 C-10 4 -10 4 -8.375 1.625 C-5.30522452 -0.4753727 -3.65443439 -0.53293835 0 0 Z " fill="#333132" transform="translate(236,158)"/>
<path d="M0 0 C3.7229703 2.6592645 6.55543557 5.73587115 8.625 9.875 C8.74707871 11.66359511 8.80048448 13.45728381 8.8125 15.25 C8.82667969 16.20648438 8.84085938 17.16296875 8.85546875 18.1484375 C8.62245572 20.90510017 8.03420164 22.52447395 6.625 24.875 C5.635 24.545 4.645 24.215 3.625 23.875 C3.78097656 23.30394531 3.93695313 22.73289062 4.09765625 22.14453125 C5.16704616 17.54219394 5.86439795 12.98903638 3.390625 8.76953125 C0.90954511 5.79100713 -0.64050573 4.11983142 -4.375 2.875 C-10.70742864 2.35594847 -13.11806957 3.08511992 -18.375 6.875 C-19.365 6.545 -20.355 6.215 -21.375 5.875 C-20.42408327 3.36803771 -19.43698622 1.93098755 -17.4375 0.125 C-11.74975046 -2.19653043 -5.78120634 -1.92706878 0 0 Z " fill="#2C292A" transform="translate(167.375,29.125)"/>
<path d="M0 0 C5.75 0.75 5.75 0.75 8 3 C8.99 2.67 9.98 2.34 11 2 C11.33 1.34 11.66 0.68 12 0 C15.96 2.64 19.92 5.28 24 8 C22 14 22 14 20 15 C19.34773438 14.4946875 18.69546875 13.989375 18.0234375 13.46875 C17.14945313 12.8190625 16.27546875 12.169375 15.375 11.5 C14.51648438 10.8503125 13.65796875 10.200625 12.7734375 9.53125 C9.55682271 7.7553162 7.6095039 7.9047492 4 8 C1.625 5.6875 1.625 5.6875 0 3 C0 2.01 0 1.02 0 0 Z " fill="#0B74BA" transform="translate(140,89)"/>
<path d="M0 0 C3.84814487 -0.58305225 5.76308635 0.2997117 8.8125 2.5 C9.88364055 3.32219744 10.9491359 4.15204049 12 5 C10.02 5.99 10.02 5.99 8 7 C8 6.01 8 5.02 8 4 C6.99503148 7.01490557 6.89664697 9.04181692 6.9375 12.1875 C6.95103516 13.53908203 6.95103516 13.53908203 6.96484375 14.91796875 C6.97644531 15.60503906 6.98804688 16.29210937 7 17 C6.34 17 5.68 17 5 17 C5 17.66 5 18.32 5 19 C1.125 18.125 1.125 18.125 0 17 C-1.65948148 15.98812105 -3.32580562 14.9873454 -5 14 C-4.649375 12.906875 -4.29875 11.81375 -3.9375 10.6875 C-2.66960546 7.09079627 -2.66960546 7.09079627 -4 4 C-2.02 4.495 -2.02 4.495 0 5 C0.66 4.01 1.32 3.02 2 2 C1.34 1.34 0.68 0.68 0 0 Z " fill="#0D74B8" transform="translate(136,33)"/>
<path d="M0 0 C0.66 0 1.32 0 2 0 C2 0.66 2 1.32 2 2 C3.32 1.67 4.64 1.34 6 1 C6 9.91 6 18.82 6 28 C5.34 28 4.68 28 4 28 C3.67 28.66 3.34 29.32 3 30 C-0.3 29.67 -3.6 29.34 -7 29 C-6.67 21.41 -6.34 13.82 -6 6 C-5.67 6 -5.34 6 -5 6 C-4.67 13.26 -4.34 20.52 -4 28 C-1.69 28 0.62 28 3 28 C2.89004549 24.0827588 2.75943266 20.16647155 2.625 16.25 C2.5940625 15.13882813 2.563125 14.02765625 2.53125 12.8828125 C2.49257812 11.81289062 2.45390625 10.74296875 2.4140625 9.640625 C2.3826416 8.65610352 2.3512207 7.67158203 2.31884766 6.65722656 C1.99897742 3.99147799 1.35631379 2.29383595 0 0 Z " fill="#F3F7FB" transform="translate(249,120)"/>
<path d="M0 0 C4.23957922 0.57432723 7.26458968 3.11345096 10.625 5.5625 C14.4516951 8.73750425 14.4516951 8.73750425 19 10 C19.66 9.34 20.32 8.68 21 8 C20.44687265 12.02992782 19.8441938 16.02022924 19 20 C17.68 19.67 16.36 19.34 15 19 C14.67 19.99 14.34 20.98 14 22 C13.34 21.67 12.68 21.34 12 21 C13.32 18.69 14.64 16.38 16 14 C15.46890625 13.74992187 14.9378125 13.49984375 14.390625 13.2421875 C11.40086684 11.68868571 8.58781971 9.9414788 5.75 8.125 C4.67234375 7.44695312 3.5946875 6.76890625 2.484375 6.0703125 C1.25460938 5.04550781 1.25460938 5.04550781 0 4 C0 2.68 0 1.36 0 0 Z " fill="#E9F3F6" transform="translate(148,83)"/>
<path d="M0 0 C1.32 0 2.64 0 4 0 C4 1.65 4 3.3 4 5 C5.65 5 7.3 5 9 5 C9 3.35 9 1.7 9 0 C9.99 0 10.98 0 12 0 C12 4.62 12 9.24 12 14 C11.01 14 10.02 14 9 14 C9 12.35 9 10.7 9 9 C7.35 9 5.7 9 4 9 C4 10.65 4 12.3 4 14 C2.68 14 1.36 14 0 14 C0 9.38 0 4.76 0 0 Z " fill="#575556" transform="translate(206,158)"/>
<path d="M0 0 C2.01822917 0.06510417 4.03645833 0.13020833 6.0546875 0.1953125 C4.70313468 4.61857628 2.85578312 6.59944232 -0.9453125 9.1953125 C-4.44678291 10.3624693 -7.27201286 10.32888703 -10.9453125 10.1953125 C-11.6053125 9.8653125 -12.2653125 9.5353125 -12.9453125 9.1953125 C-12.6153125 6.8853125 -12.2853125 4.5753125 -11.9453125 2.1953125 C-10.6665625 2.2365625 -9.3878125 2.2778125 -8.0703125 2.3203125 C-5.92659758 2.43744123 -5.92659758 2.43744123 -3.9453125 2.1953125 C-1.9453125 0.1953125 -1.9453125 0.1953125 0 0 Z " fill="#0F79C2" transform="translate(327.9453125,138.8046875)"/>
<path d="M0 0 C2.875 -0.125 2.875 -0.125 6 0 C8 2 8 2 8.22705078 4.88916016 C8.21134033 6.69586182 8.21134033 6.69586182 8.1953125 8.5390625 C8.18886719 9.84101562 8.18242187 11.14296875 8.17578125 12.484375 C8.15906929 13.86458595 8.14213939 15.24479429 8.125 16.625 C8.11497006 18.01301452 8.10584423 19.40103589 8.09765625 20.7890625 C8.07401863 24.19288026 8.04106867 27.59635506 8 31 C5.69 30.67 3.38 30.34 1 30 C1 29.34 1 28.68 1 28 C2.65 28 4.3 28 6 28 C6 27.34 6 26.68 6 26 C5.34 25.67 4.68 25.34 4 25 C4 17.08 4 9.16 4 1 C2.68 0.67 1.36 0.34 0 0 Z " fill="#0A77C0" transform="translate(267,117)"/>
<path d="M0 0 C1.258125 -0.04125 2.51625 -0.0825 3.8125 -0.125 C4.52019531 -0.14820313 5.22789062 -0.17140625 5.95703125 -0.1953125 C8 0 8 0 11 2 C11.375 5 11.375 5 11 8 C7.77208445 10.1519437 6.71599191 10.20086443 3 10 C3 11.32 3 12.64 3 14 C2.01 14 1.02 14 0 14 C0 9.38 0 4.76 0 0 Z " fill="#3E3D3D" transform="translate(266,158)"/>
<path d="M0 0 C4.59037956 1.14759489 5.33669182 2.29039218 8 6 C8.33 4.02 8.66 2.04 9 0 C9.99 0 10.98 0 12 0 C12 4.62 12 9.24 12 14 C11.01 14 10.02 14 9 14 C7.61328125 12.46875 7.61328125 12.46875 6.3125 10.5 C5.65701172 9.52546875 5.65701172 9.52546875 4.98828125 8.53125 C4.66214844 8.0259375 4.33601563 7.520625 4 7 C3.67 9.31 3.34 11.62 3 14 C2.01 14 1.02 14 0 14 C0 9.38 0 4.76 0 0 Z " fill="#2D2B2C" transform="translate(296,158)"/>
<path d="M0 0 C1.258125 -0.04125 2.51625 -0.0825 3.8125 -0.125 C4.52019531 -0.14820313 5.22789062 -0.17140625 5.95703125 -0.1953125 C8 0 8 0 11 2 C11.4409511 4.86618213 11.41501866 6.36655047 9.8125 8.8125 C7.44017475 10.36678206 5.77958655 10.22537188 3 10 C3 11.32 3 12.64 3 14 C2.01 14 1.02 14 0 14 C0 9.38 0 4.76 0 0 Z " fill="#302E2E" transform="translate(248,158)"/>
<path d="M0 0 C0.66 0 1.32 0 2 0 C2 0.99 2 1.98 2 3 C4.31 3 6.62 3 9 3 C9 3.99 9 4.98 9 6 C6.03 5.505 6.03 5.505 3 5 C3 15.23 3 25.46 3 36 C2.67 34.68 2.34 33.36 2 32 C1.34 32 0.68 32 0 32 C0 21.44 0 10.88 0 0 Z " fill="#F0F6F6" transform="translate(264,112)"/>
<path d="M0 0 C2.31 0 4.62 0 7 0 C9.00859388 4.14223641 9.13236618 7.30813609 8.9375 11.875 C8.84142655 18.42858179 9.29276318 22.58652748 13.4375 27.8125 C15.19846773 29.15083547 16.98444515 30.09647541 19 31 C15.625 31.1875 15.625 31.1875 12 31 C11.34 30.01 10.68 29.02 10 28 C9.01 27.67 8.02 27.34 7 27 C6.67 27.99 6.34 28.98 6 30 C5.98541748 29.3294458 5.97083496 28.6588916 5.95581055 27.96801758 C5.881117 24.91561178 5.78452701 21.86427415 5.6875 18.8125 C5.66494141 17.75740234 5.64238281 16.70230469 5.61914062 15.61523438 C5.58369141 14.59365234 5.54824219 13.57207031 5.51171875 12.51953125 C5.48553467 11.58214111 5.45935059 10.64475098 5.43237305 9.67895508 C4.76966918 5.57288534 2.90526698 2.90526698 0 0 Z " fill="#F7F9F9" transform="translate(298,118)"/>
<path d="M0 0 C0.66 0.33 1.32 0.66 2 1 C1.67 1.99 1.34 2.98 1 4 C-0.98 4 -2.96 4 -5 4 C-5.33 5.65 -5.66 7.3 -6 9 C-4.02 9.66 -2.04 10.32 0 11 C0 10.34 0 9.68 0 9 C-0.99 9 -1.98 9 -3 9 C-3 8.01 -3 7.02 -3 6 C-1.02 6 0.96 6 3 6 C3 8.31 3 10.62 3 13 C-0.09173752 14.54586876 -2.59429552 14.29359521 -6 14 C-8.4375 12.375 -8.4375 12.375 -10 10 C-10.61195145 6.3282913 -10.48706506 4.71186432 -8.375 1.625 C-5.36281721 -0.43596718 -3.5817622 -0.38932198 0 0 Z " fill="#2D2B2C" transform="translate(326,158)"/>
<path d="M0 0 C0.9590625 0.2784375 0.9590625 0.2784375 1.9375 0.5625 C2.9584375 0.7790625 2.9584375 0.7790625 4 1 C4.33 0.67 4.66 0.34 5 0 C8.4375 -0.1875 8.4375 -0.1875 12 0 C14 2 14 2 14.125 4.625 C14.08375 5.40875 14.0425 6.1925 14 7 C11.03 7 8.06 7 5 7 C5 6.01 5 5.02 5 4 C4.34 4 3.68 4 3 4 C3 15.88 3 27.76 3 40 C2.67 40 2.34 40 2 40 C1.97494385 38.85934082 1.9498877 37.71868164 1.92407227 36.54345703 C1.83005707 32.32035659 1.72982213 28.09742291 1.62768555 23.87451172 C1.58431435 22.04512425 1.54264089 20.21569573 1.50268555 18.38623047 C1.44503582 15.75996514 1.38132635 13.1339069 1.31640625 10.5078125 C1.29969376 9.68693146 1.28298126 8.86605042 1.26576233 8.02029419 C1.2568613 3.8766304 1.2568613 3.8766304 0 0 Z " fill="#C3DCEC" transform="translate(261,108)"/>
<path d="M0 0 C2 0.3125 2 0.3125 4 1 C6.18703385 0.62092718 6.18703385 0.62092718 8 0 C6.97738681 5.36871922 4.61943124 7.83763927 0.30859375 10.875 C-3.4398872 12.70167092 -6.9353584 12.5080802 -11 12 C-10.67 10.68 -10.34 9.36 -10 8 C-8.02 8.495 -8.02 8.495 -6 9 C-5.67 8.34 -5.34 7.68 -5 7 C-4.34 7 -3.68 7 -3 7 C-3.33 6.01 -3.66 5.02 -4 4 C-2.25 1.9375 -2.25 1.9375 0 0 Z " fill="#2F2C2D" transform="translate(153,157)"/>
<path d="M0 0 C3.625 0.375 3.625 0.375 7 1 C6.67 1.99 6.34 2.98 6 4 C4.35 3.67 2.7 3.34 1 3 C1.33 3.66 1.66 4.32 2 5 C2.825 5.268125 3.65 5.53625 4.5 5.8125 C7 7 7 7 7.9375 9.5 C7.958125 10.325 7.97875 11.15 8 12 C6 14 6 14 2.5 14.1875 C-1 14 -1 14 -3 13 C-2.67 12.01 -2.34 11.02 -2 10 C0.31 10.33 2.62 10.66 5 11 C5 10.34 5 9.68 5 9 C2.69 8.34 0.38 7.68 -2 7 C-2.125 4.625 -2.125 4.625 -2 2 C-1.34 1.34 -0.68 0.68 0 0 Z " fill="#2E2C2D" transform="translate(191,158)"/>
<path d="M0 0 C4.38462134 0.50109958 6.8000997 1.98295115 10 5 C10 5.66 10 6.32 10 7 C11.65 7 13.3 7 15 7 C14.67 7.66 14.34 8.32 14 9 C12.68 8.67 11.36 8.34 10 8 C10.33 9.32 10.66 10.64 11 12 C7.6354759 12 5.94360042 11.61898023 3 10 C0.66937956 6.30315379 0 4.41789639 0 0 Z " fill="#1A7ABD" transform="translate(108,99)"/>
<path d="M0 0 C1.65 0.33 3.3 0.66 5 1 C4.67 9.91 4.34 18.82 4 28 C3.67 28 3.34 28 3 28 C2.67 23.71 2.34 19.42 2 15 C1.01 15.99 0.02 16.98 -1 18 C-0.505 9.09 -0.505 9.09 0 0 Z " fill="#EAF2F7" transform="translate(221,120)"/>
<path d="M0 0 C4.26029191 0.57999024 7.35161535 3.12387893 10.75 5.5625 C11.35199219 5.98724609 11.95398438 6.41199219 12.57421875 6.84960938 C14.05329714 7.89435522 15.52717259 8.94646016 17 10 C16.360625 10.12375 15.72125 10.2475 15.0625 10.375 C14.381875 10.58125 13.70125 10.7875 13 11 C12.67 11.66 12.34 12.32 12 13 C9.98765502 11.59854546 7.99135891 10.18072859 6 8.75 C5.42765625 8.35425781 4.8553125 7.95851563 4.265625 7.55078125 C2.625 6.359375 2.625 6.359375 0 4 C0 2.68 0 1.36 0 0 Z " fill="#E1EFF5" transform="translate(134,101)"/>
<path d="M0 0 C1.98 0 3.96 0 6 0 C6.33 0.66 6.66 1.32 7 2 C10.465 1.505 10.465 1.505 14 1 C14 1.66 14 2.32 14 3 C15.65 3 17.3 3 19 3 C19 3.33 19 3.66 19 4 C17.72125 4.12375 16.4425 4.2475 15.125 4.375 C11.65209064 4.69042399 11.65209064 4.69042399 9 7 C5.5 7.3125 5.5 7.3125 2 7 C0 4 0 4 0 0 Z " fill="#F6FBFB" transform="translate(315,135)"/>
<path d="M0 0 C2.9375 0.8125 2.9375 0.8125 4.9375 2.8125 C4.9375 4.1325 4.9375 5.4525 4.9375 6.8125 C0.9775 6.8125 -2.9825 6.8125 -7.0625 6.8125 C-5.2785804 -0.32317839 -5.2785804 -0.32317839 0 0 Z " fill="#D8EAF3" transform="translate(321.0625,123.1875)"/>
<path d="M0 0 C0.66 0.66 1.32 1.32 2 2 C1.2733313 2.81549316 1.2733313 2.81549316 0.53198242 3.64746094 C-1.3308499 6.50805891 -1.42150857 8.24872215 -1.51171875 11.640625 C-1.56489258 13.24550781 -1.56489258 13.24550781 -1.61914062 14.8828125 C-1.64169922 15.99398437 -1.66425781 17.10515625 -1.6875 18.25 C-1.72166016 19.37664062 -1.75582031 20.50328125 -1.79101562 21.6640625 C-1.87343014 24.44260901 -1.94260298 27.22084252 -2 30 C-2.66 30 -3.32 30 -4 30 C-4 20.76 -4 11.52 -4 2 C-3.01 2.495 -3.01 2.495 -2 3 C-1.34 2.01 -0.68 1.02 0 0 Z " fill="#E5F2F7" transform="translate(279,118)"/>
<path d="M0 0 C3.49844386 0.63389235 5.84086876 2.05177694 8.75 4.0625 C9.94882813 4.88427734 9.94882813 4.88427734 11.171875 5.72265625 C12.07679688 6.35494141 12.07679688 6.35494141 13 7 C12.01 8.485 12.01 8.485 11 10 C7.56049636 9.38801624 5.48435515 8.07941153 2.75 5.9375 C2.04359375 5.38964844 1.3371875 4.84179688 0.609375 4.27734375 C0.07828125 3.85582031 -0.4528125 3.43429688 -1 3 C-0.67 2.01 -0.34 1.02 0 0 Z " fill="#E3F1F5" transform="translate(147,96)"/>
<path d="M0 0 C1.32 0 2.64 0 4 0 C4 4.62 4 9.24 4 14 C2.68 14 1.36 14 0 14 C0 9.38 0 4.76 0 0 Z " fill="#525051" transform="translate(284,158)"/>
<path d="M0 0 C4.55555556 0.55555556 4.55555556 0.55555556 6 2 C6.125 4.5 6.125 4.5 6 7 C5 8 5 8 1.9375 8.0625 C0.968125 8.041875 -0.00125 8.02125 -1 8 C-1.625 5.125 -1.625 5.125 -2 2 C-1.34 1.34 -0.68 0.68 0 0 Z " fill="#F2F2F2" transform="translate(231,161)"/>
<path d="M0 0 C5.15464734 0.48324819 8.81550319 3.18610761 13 6 C12.01 6.495 12.01 6.495 11 7 C11 8.65 11 10.3 11 12 C10.34 11.67 9.68 11.34 9 11 C9.33 10.34 9.66 9.68 10 9 C8.9171875 8.62875 8.9171875 8.62875 7.8125 8.25 C4.70432462 6.86858872 2.47276852 5.33146746 0 3 C0 2.01 0 1.02 0 0 Z " fill="#EAF5F8" transform="translate(160,79)"/>
<path d="M0 0 C2.875 -0.125 2.875 -0.125 6 0 C8 2 8 2 8.125 4.625 C8.08375 5.40875 8.0425 6.1925 8 7 C5.36 7 2.72 7 0 7 C0 4.69 0 2.38 0 0 Z " fill="#3C3A3B" transform="translate(267,108)"/>
<path d="M0 0 C0.53625 0.37125 1.0725 0.7425 1.625 1.125 C1.02316251 3.14545442 0.35193904 5.14611039 -0.375 7.125 C-1.365 7.62 -1.365 7.62 -2.375 8.125 C-4.685 6.475 -6.995 4.825 -9.375 3.125 C-8.375 1.125 -8.375 1.125 -5.5625 -0.125 C-2.375 -0.875 -2.375 -0.875 0 0 Z " fill="#1075BD" transform="translate(162.375,95.875)"/>
<path d="M0 0 C4.82945236 0.44925138 7.54736544 1.54736544 11 5 C11 5.99 11 6.98 11 8 C8.3925972 8.38344159 6.61936847 8.374232 4.33203125 6.9921875 C2.6875 5.6875 2.6875 5.6875 0 3 C0 2.01 0 1.02 0 0 Z " fill="#E1EFF5" transform="translate(133,69)"/>
<path d="M0 0 C1.134375 0.020625 2.26875 0.04125 3.4375 0.0625 C3.7675 1.0525 4.0975 2.0425 4.4375 3.0625 C2.4575 3.0625 0.4775 3.0625 -1.5625 3.0625 C-1.5625 4.0525 -1.5625 5.0425 -1.5625 6.0625 C-0.5725 6.0625 0.4175 6.0625 1.4375 6.0625 C1.4375 6.7225 1.4375 7.3825 1.4375 8.0625 C-0.9375 8.1875 -0.9375 8.1875 -3.5625 8.0625 C-4.2225 7.4025 -4.8825 6.7425 -5.5625 6.0625 C-4.83351201 0.08479846 -4.83351201 0.08479846 0 0 Z " fill="#EAE9EA" transform="translate(324.5625,160.9375)"/>
<path d="M0 0 C0.33 0 0.66 0 1 0 C1 7.92 1 15.84 1 24 C-1.31 24 -3.62 24 -6 24 C-6.33 22.02 -6.66 20.04 -7 18 C-6.67 18.99 -6.34 19.98 -6 21 C-5.360625 20.814375 -4.72125 20.62875 -4.0625 20.4375 C-3.381875 20.293125 -2.70125 20.14875 -2 20 C-1.67 20.33 -1.34 20.66 -1 21 C-0.67 14.07 -0.34 7.14 0 0 Z " fill="#1B7DBD" transform="translate(251,124)"/>
<path d="M0 0 C0.82810826 3.31243305 1.09278428 5.65976579 1 9 C0.67 8.34 0.34 7.68 0 7 C-0.66 7 -1.32 7 -2 7 C-3.10447673 9.57711237 -3.98581914 11.9237779 -4.5 14.6875 C-5 17 -5 17 -7 19 C-7 18.34 -7 17.68 -7 17 C-7.99 16.67 -8.98 16.34 -10 16 C-6.7 10.72 -3.4 5.44 0 0 Z " fill="#EBF3F6" transform="translate(183,67)"/>
<path d="M0 0 C2.25 0.875 2.25 0.875 4.25 2.875 C3.64671875 3.06835938 3.0434375 3.26171875 2.421875 3.4609375 C1.62265625 3.72132812 0.8234375 3.98171875 0 4.25 C-0.78890625 4.50523438 -1.5778125 4.76046875 -2.390625 5.0234375 C-4.61627958 5.82673667 -6.65931672 6.77211662 -8.75 7.875 C-8.75 6.555 -8.75 5.235 -8.75 3.875 C-5.78181647 1.32098162 -3.99133566 -0.18142435 0 0 Z " fill="#302E2E" transform="translate(155.75,28.125)"/>
<path d="M0 0 C0.99 0.33 1.98 0.66 3 1 C3.33 2.65 3.66 4.3 4 6 C3.01 6.495 3.01 6.495 2 7 C0.9805881 7.98020375 -0.02246356 8.97803008 -1 10 C-3.475 9.01 -3.475 9.01 -6 8 C-5.195625 7.236875 -4.39125 6.47375 -3.5625 5.6875 C-0.83200976 3.20569102 -0.83200976 3.20569102 0 0 Z " fill="#EFF6F6" transform="translate(333,140)"/>
<path d="M0 0 C1.32 0 2.64 0 4 0 C4.33 0.33 4.66 0.66 5 1 C5.99 1 6.98 1 8 1 C8 1.99 8 2.98 8 4 C7.34 4 6.68 4 6 4 C6.33 4.99 6.66 5.98 7 7 C3.625 6.6875 3.625 6.6875 0 6 C-0.66 5.01 -1.32 4.02 -2 3 C-1.34 2.34 -0.68 1.68 0 1 C0 0.67 0 0.34 0 0 Z " fill="#1E1B1B" transform="translate(144,140)"/>
<path d="M0 0 C1.32 0.66 2.64 1.32 4 2 C0.04 2.66 -3.92 3.32 -8 4 C-8.33 2.02 -8.66 0.04 -9 -2 C-5.04510221 -3.61125466 -3.39274703 -2.29010425 0 0 Z " fill="#EBF3F6" transform="translate(289,115)"/>
<path d="M0 0 C0.33 0.66 0.66 1.32 1 2 C-1.31 2.66 -3.62 3.32 -6 4 C-6.33 10.93 -6.66 17.86 -7 25 C-7.33 25 -7.66 25 -8 25 C-8.08701039 21.39598519 -8.14039388 17.79223988 -8.1875 14.1875 C-8.21263672 13.16333984 -8.23777344 12.13917969 -8.26367188 11.08398438 C-8.27333984 10.10107422 -8.28300781 9.11816406 -8.29296875 8.10546875 C-8.3086792 7.19949951 -8.32438965 6.29353027 -8.34057617 5.36010742 C-8 3 -8 3 -6.6496582 1.19262695 C-4.39093918 -0.44032294 -2.71741961 -0.22033132 0 0 Z " fill="#E3EDF2" transform="translate(241,123)"/>
<path d="M0 0 C0.66 0 1.32 0 2 0 C1.125 4.875 1.125 4.875 0 6 C-6.52542373 6.23728814 -6.52542373 6.23728814 -9 5 C-8.67 4.01 -8.34 3.02 -8 2 C-5.69 2.33 -3.38 2.66 -1 3 C-0.67 2.01 -0.34 1.02 0 0 Z " fill="#393838" transform="translate(197,166)"/>
<path d="M0 0 C0.66 0 1.32 0 2 0 C2 1.65 2 3.3 2 5 C3.65 5 5.3 5 7 5 C7.33 5.66 7.66 6.32 8 7 C6.02 7 4.04 7 2 7 C2 8.98 2 10.96 2 13 C1.34 13 0.68 13 0 13 C0 8.71 0 4.42 0 0 Z " fill="#161415" transform="translate(207,159)"/>
<path d="M0 0 C3.68754757 0.49831724 5.60490662 1.10067643 8 4 C7.67 4.99 7.34 5.98 7 7 C4.03824877 6.38722388 2.61941217 5.74627478 0 4 C0 2.68 0 1.36 0 0 Z " fill="#CDE9F9" transform="translate(108,99)"/>
<path d="M0 0 C2.125 0.375 2.125 0.375 4 1 C4.625 2.875 4.625 2.875 5 5 C4.34 5.66 3.68 6.32 3 7 C0.875 6.625 0.875 6.625 -1 6 C-1.625 4.125 -1.625 4.125 -2 2 C-1.34 1.34 -0.68 0.68 0 0 Z " fill="#DAECF5" transform="translate(136,41)"/>
<path d="M0 0 C0.99 0.33 1.98 0.66 3 1 C3 1.66 3 2.32 3 3 C6.465 2.505 6.465 2.505 10 2 C9.505 2.45375 9.01 2.9075 8.5 3.375 C6.77390663 4.87635519 6.77390663 4.87635519 7 7 C4.36 7 1.72 7 -1 7 C-0.67 4.69 -0.34 2.38 0 0 Z " fill="#046FB7" transform="translate(316,141)"/>
<path d="M0 0 C1.21516636 1.82274953 2.39331792 3.6719181 3.5 5.5625 C5.56892129 8.92449709 7.48523805 10.35977776 11 12 C7.625 12.1875 7.625 12.1875 4 12 C3.34 11.01 2.68 10.02 2 9 C1.01 8.67 0.02 8.34 -1 8 C-1.33 8.99 -1.66 9.98 -2 11 C-1.67 9.35 -1.34 7.7 -1 6 C-0.34 6 0.32 6 1 6 C0.67 4.02 0.34 2.04 0 0 Z " fill="#E1EDF2" transform="translate(306,137)"/>
<path d="M0 0 C0.33 0 0.66 0 1 0 C1.33 7.26 1.66 14.52 2 22 C4.31 22 6.62 22 9 22 C9 22.33 9 22.66 9 23 C5.7 23 2.4 23 -1 23 C-0.67 15.41 -0.34 7.82 0 0 Z " fill="#D7E9F3" transform="translate(243,126)"/>
<path d="M0 0 C1.2065625 0.0309375 1.2065625 0.0309375 2.4375 0.0625 C3.5625 3.8125 3.5625 3.8125 2.4375 6.0625 C0.7875 6.0625 -0.8625 6.0625 -2.5625 6.0625 C-2.94468767 4.40635343 -3.27645102 2.73792976 -3.5625 1.0625 C-2.5625 0.0625 -2.5625 0.0625 0 0 Z " fill="#DEEEF5" transform="translate(166.5625,61.9375)"/>
<path d="M0 0 C0.66 0 1.32 0 2 0 C2 4.29 2 8.58 2 13 C1.01 13 0.02 13 -1 13 C-1.66 11.35 -2.32 9.7 -3 8 C-2.34 8 -1.68 8 -1 8 C-0.67 5.36 -0.34 2.72 0 0 Z " fill="#1C1A1B" transform="translate(306,159)"/>
<path d="M0 0 C2.97 0 5.94 0 9 0 C9.33 1.65 9.66 3.3 10 5 C9.34 5 8.68 5 8 5 C8 4.01 8 3.02 8 2 C6.02 2 4.04 2 2 2 C1.67 3.98 1.34 5.96 1 8 C0.67 8 0.34 8 0 8 C0 5.36 0 2.72 0 0 Z " fill="#1F1D1E" transform="translate(267,159)"/>
<path d="M0 0 C0.66 0.66 1.32 1.32 2 2 C0.35 2 -1.3 2 -3 2 C-3 2.66 -3 3.32 -3 4 C-2.34 4.33 -1.68 4.66 -1 5 C-2.27875 5.061875 -3.5575 5.12375 -4.875 5.1875 C-5.59429687 5.22230469 -6.31359375 5.25710937 -7.0546875 5.29296875 C-7.69664062 5.19628906 -8.33859375 5.09960938 -9 5 C-9.66 4.01 -10.32 3.02 -11 2 C-6.93150591 -0.71232939 -4.83523216 -0.30699887 0 0 Z " fill="#0271B8" transform="translate(204,143)"/>
<path d="M0 0 C1.65 0.33 3.3 0.66 5 1 C3.515 2.485 3.515 2.485 2 4 C3.98 4.66 5.96 5.32 8 6 C8 6.33 8 6.66 8 7 C3.545 7.495 3.545 7.495 -1 8 C-1.625 5.6875 -1.625 5.6875 -2 3 C-1.34 2.01 -0.68 1.02 0 0 Z " fill="#333031" transform="translate(141,140)"/>
<path d="M0 0 C5.75 0.75 5.75 0.75 8 3 C8 3.99 8 4.98 8 6 C3.50347222 6.36458333 3.50347222 6.36458333 1.1875 4.6875 C0 3 0 3 0 0 Z " fill="#E0F0F5" transform="translate(140,89)"/>
<path d="M0 0 C3.46704871 0.9534384 5.6567524 2.28676594 8 5 C4.75 5.75 4.75 5.75 1 6 C-1.4375 4.0625 -1.4375 4.0625 -3 2 C-2.01 1.34 -1.02 0.68 0 0 Z " fill="#E2EFF5" transform="translate(139,120)"/>
<path d="M0 0 C3.10494126 -0.31845551 5.01726077 0.00575359 8 1 C8 1.99 8 2.98 8 4 C2.58461538 5.23076923 2.58461538 5.23076923 -0.375 4.0625 C-0.91125 3.711875 -1.4475 3.36125 -2 3 C-1.34 2.01 -0.68 1.02 0 0 Z " fill="#0273BD" transform="translate(142,115)"/>
<path d="M0 0 C1.32 0 2.64 0 4 0 C4.125 2.875 4.125 2.875 4 6 C3.34 6.66 2.68 7.32 2 8 C-0.125 7.625 -0.125 7.625 -2 7 C-1.01 7 -0.02 7 1 7 C1 6.34 1 5.68 1 5 C0.34 5 -0.32 5 -1 5 C-0.67 3.35 -0.34 1.7 0 0 Z " fill="#201E1F" transform="translate(211,79)"/>
<path d="M0 0 C2 1 2 1 2.8125 3 C3.85955198 5.28474077 3.85955198 5.28474077 6.625 5.75 C7.40875 5.8325 8.1925 5.915 9 6 C9.33 5.34 9.66 4.68 10 4 C10 4.99 10 5.98 10 7 C8.35 7 6.7 7 5 7 C5 7.66 5 8.32 5 9 C2.525 8.01 2.525 8.01 0 7 C0 4.69 0 2.38 0 0 Z " fill="#363435" transform="translate(317,163)"/>
<path d="M0 0 C0 1.65 0 3.3 0 5 C-3.90838866 5 -5.11594107 3.49432124 -8 1 C-3.375 -1.125 -3.375 -1.125 0 0 Z " fill="#137AC1" transform="translate(134,109)"/>
<path d="M0 0 C5.41538462 -0.36923077 5.41538462 -0.36923077 8.375 1.5 C8.91125 1.995 9.4475 2.49 10 3 C9.34 4.65 8.68 6.3 8 8 C7.608125 7.401875 7.21625 6.80375 6.8125 6.1875 C4.79134301 3.7481726 2.73432518 2.55191429 0 1 C0 0.67 0 0.34 0 0 Z " fill="#3F3D3E" transform="translate(230,158)"/>
<path d="M0 0 C2.62187494 1.04874998 3.79371361 1.64931313 5.25 4.125 C5.4975 4.74375 5.745 5.3625 6 6 C3.33333333 5.33333333 0.66666667 4.66666667 -2 4 C-2.33 4.99 -2.66 5.98 -3 7 C-3.66 6.34 -4.32 5.68 -5 5 C-4.67 4.01 -4.34 3.02 -4 2 C-2.02 2.495 -2.02 2.495 0 3 C0 2.01 0 1.02 0 0 Z " fill="#1378BF" transform="translate(327,118)"/>
<path d="M0 0 C2.31 0.33 4.62 0.66 7 1 C6.67 1.66 6.34 2.32 6 3 C4.68 2.67 3.36 2.34 2 2 C2.66 3.65 3.32 5.3 4 7 C3.34 7.66 2.68 8.32 2 9 C0.4375 7.875 0.4375 7.875 -1 6 C-0.6875 2.8125 -0.6875 2.8125 0 0 Z " fill="#1479BF" transform="translate(131,67)"/>
<path d="M0 0 C1.08667969 0.01804687 2.17335938 0.03609375 3.29296875 0.0546875 C4.54013672 0.08949219 4.54013672 0.08949219 5.8125 0.125 C5.8125 1.115 5.8125 2.105 5.8125 3.125 C0.8625 2.795 -4.0875 2.465 -9.1875 2.125 C-5.66070901 -0.22619399 -4.15870515 -0.08943452 0 0 Z " fill="#197CC3" transform="translate(291.1875,116.875)"/>
<path d="M0 0 C0.66 1.32 1.32 2.64 2 4 C1.34 4 0.68 4 0 4 C0 4.66 0 5.32 0 6 C0.66 6.33 1.32 6.66 2 7 C-0.64 7.33 -3.28 7.66 -6 8 C-4.02 5.36 -2.04 2.72 0 0 Z " fill="#1277BB" transform="translate(89,79)"/>
<path d="M0 0 C2.31 0 4.62 0 7 0 C6.67 0.99 6.34 1.98 6 3 C4.35 2.67 2.7 2.34 1 2 C1 2.66 1 3.32 1 4 C2.98 4 4.96 4 7 4 C7 4.33 7 4.66 7 5 C4.69 5 2.38 5 0 5 C0 3.35 0 1.7 0 0 Z " fill="#056DB5" transform="translate(267,143)"/>
<path d="M0 0 C-2.0625 2.125 -2.0625 2.125 -5 4 C-8.8125 3.25 -8.8125 3.25 -12 2 C-7.57703297 -0.94864468 -5.15145854 -1.28786464 0 0 Z " fill="#3B393A" transform="translate(214,78)"/>
<path d="M0 0 C2.16874252 0.50603992 3.99967627 0.99983813 6 2 C5.34 3.65 4.68 5.3 4 7 C3.01 7 2.02 7 1 7 C1 6.01 1 5.02 1 4 C0.6937566 2.66018514 0.36548445 1.32488113 0 0 Z " fill="#1D7BBD" transform="translate(179,62)"/>
<path d="M0 0 C0.66 0.33 1.32 0.66 2 1 C1.40138258 3.35171131 0.73075648 5.6859378 0 8 C-0.99 8.495 -0.99 8.495 -2 9 C-2.33 6.69 -2.66 4.38 -3 2 C-2.01 1.34 -1.02 0.68 0 0 Z " fill="#1478BD" transform="translate(219,133)"/>
<path d="M0 0 C0.99 0.66 1.98 1.32 3 2 C1.02 4.31 -0.96 6.62 -3 9 C-3.33 7.68 -3.66 6.36 -4 5 C-2.0625 2.25 -2.0625 2.25 0 0 Z " fill="#1879BF" transform="translate(281,119)"/>
<path d="M0 0 C0.66 0.33 1.32 0.66 2 1 C2.4140625 3.06640625 2.4140625 3.06640625 2.625 5.5625 C2.69976562 6.38878906 2.77453125 7.21507813 2.8515625 8.06640625 C2.92503906 9.02353516 2.92503906 9.02353516 3 10 C2.01 9.67 1.02 9.34 0 9 C-1.125 3.375 -1.125 3.375 0 0 Z " fill="#1678BB" transform="translate(218,116)"/>
<path d="M0 0 C1.98 0 3.96 0 6 0 C6.33 1.32 6.66 2.64 7 4 C5.02 4 3.04 4 1 4 C0.67 2.68 0.34 1.36 0 0 Z " fill="#2B2728" transform="translate(267,108)"/>
<path d="M0 0 C2.475 0.495 2.475 0.495 5 1 C5.33 3.31 5.66 5.62 6 8 C5.01 8.66 4.02 9.32 3 10 C3 9.01 3 8.02 3 7 C2.34 6.34 1.68 5.68 1 5 C1.375 2.875 1.375 2.875 2 1 C1.34 0.67 0.68 0.34 0 0 Z " fill="#1E1A1B" transform="translate(184,85)"/>
<path d="M0 0 C0.66 0 1.32 0 2 0 C2 2.64 2 5.28 2 8 C1.01 8 0.02 8 -1 8 C-1 7.34 -1 6.68 -1 6 C-1.66 6 -2.32 6 -3 6 C-2 4 -1 2 0 0 Z " fill="#0172BE" transform="translate(190,136)"/>
<path d="M0 0 C0.66 0 1.32 0 2 0 C2.5625 1.9375 2.5625 1.9375 3 4 C2.67 4.33 2.34 4.66 2 5 C1.76924918 6.34747084 1.58846937 7.70377565 1.4375 9.0625 C1.293125 10.361875 1.14875 11.66125 1 13 C0.67 13 0.34 13 0 13 C0 8.71 0 4.42 0 0 Z M3 1 C3.66 1 4.32 1 5 1 C4.67 1.99 4.34 2.98 4 4 C3.67 3.01 3.34 2.02 3 1 Z " fill="#CEE2EF" transform="translate(221,120)"/>
<path d="M0 0 C4.875 1.75 4.875 1.75 6 4 C5.34 4.66 4.68 5.32 4 6 C2.02 5.34 0.04 4.68 -2 4 C-1.34 3.67 -0.68 3.34 0 3 C0 2.01 0 1.02 0 0 Z " fill="#2D2A2B" transform="translate(101,118)"/>
<path d="M0 0 C1.60031344 3.20062687 0.03173691 5.72271806 -1 9 C-2.32 9.33 -3.64 9.66 -5 10 C-5 6.60406522 -4.47834052 5.93380119 -2.5 3.3125 C-2.0359375 2.68988281 -1.571875 2.06726562 -1.09375 1.42578125 C-0.7328125 0.95527344 -0.371875 0.48476563 0 0 Z " fill="#1779BA" transform="translate(123,37)"/>
<path d="M0 0 C2.87245509 1.43622754 5.41753857 3.09122416 8 5 C8 5.99 8 6.98 8 8 C5.04987143 6.63029745 2.4347778 5.17390875 0 3 C0 2.01 0 1.02 0 0 Z " fill="#1579BD" transform="translate(106,106)"/>
<path d="M0 0 C1.258125 -0.04125 2.51625 -0.0825 3.8125 -0.125 C4.52019531 -0.14820312 5.22789062 -0.17140625 5.95703125 -0.1953125 C8 0 8 0 11 2 C10 3 10 3 7.1875 3.25 C3.72285889 2.97826344 2.50584896 2.31309135 0 0 Z " fill="#222021" transform="translate(156,28)"/>
<path d="M0 0 C0.33 0 0.66 0 1 0 C1.125 2.875 1.125 2.875 1 6 C0.34 6.66 -0.32 7.32 -1 8 C-1.99 8 -2.98 8 -4 8 C-2.87548273 5.0280615 -1.77706209 2.66559313 0 0 Z " fill="#211F20" transform="translate(239,163)"/>
<path d="M0 0 C1.65 1.65 3.3 3.3 5 5 C4.01 5.495 4.01 5.495 3 6 C2.01 7.485 2.01 7.485 1 9 C0.34 8.34 -0.32 7.68 -1 7 C-0.625 3.375 -0.625 3.375 0 0 Z " fill="#201B1D" transform="translate(155,152)"/>
<path d="M0 0 C0.33 0 0.66 0 1 0 C1.33 3.63 1.66 7.26 2 11 C1.34 11 0.68 11 0 11 C-0.33 11.66 -0.66 12.32 -1 13 C-1 12.34 -1 11.68 -1 11 C-1.66 10.67 -2.32 10.34 -3 10 C-2.34 10 -1.68 10 -1 10 C-0.67 6.7 -0.34 3.4 0 0 Z " fill="#197EC3" transform="translate(190,125)"/>
<path d="M0 0 C3.65316671 1.24976756 4.78065836 1.67098753 7 5 C6.34 5 5.68 5 5 5 C4.67 5.66 4.34 6.32 4 7 C4 6.34 4 5.68 4 5 C2.68 4.34 1.36 3.68 0 3 C0 2.01 0 1.02 0 0 Z " fill="#1478BF" transform="translate(156,45)"/>
<path d="M0 0 C-1.44253657 3.36591866 -3.33264727 5.51047079 -6 8 C-6.33 6.68 -6.66 5.36 -7 4 C-6.34 4 -5.68 4 -5 4 C-5 3.34 -5 2.68 -5 2 C-2 0 -2 0 0 0 Z " fill="#E3F1F5" transform="translate(122,38)"/>
<path d="M0 0 C4.455 0.99 4.455 0.99 9 2 C9 2.66 9 3.32 9 4 C6.03 4 3.06 4 0 4 C0 2.68 0 1.36 0 0 Z " fill="#403E3F" transform="translate(142,165)"/>
<path d="M0 0 C0.33 0.66 0.66 1.32 1 2 C2.65 2 4.3 2 6 2 C6 2.99 6 3.98 6 5 C4.34385343 5.38218767 2.67542976 5.71395102 1 6 C0 5 0 5 -0.0625 2.4375 C-0.041875 1.633125 -0.02125 0.82875 0 0 Z " fill="#137BC2" transform="translate(296,142)"/>
<path d="M0 0 C1.32 0.33 2.64 0.66 4 1 C3.67 1.66 3.34 2.32 3 3 C3.66 3.66 4.32 4.32 5 5 C2.03 5 -0.94 5 -4 5 C-2.68 4.67 -1.36 4.34 0 4 C0 2.68 0 1.36 0 0 Z " fill="#E5EFF4" transform="translate(201,137)"/>
<path d="M0 0 C-6.28571429 2.42857143 -6.28571429 2.42857143 -10 1 C-10.33 1.99 -10.66 2.98 -11 4 C-11 2.35 -11 0.7 -11 -1 C-3.57142857 -2.42857143 -3.57142857 -2.42857143 0 0 Z " fill="#1A78B7" transform="translate(150,88)"/>
<path d="M0 0 C0.99 0.33 1.98 0.66 3 1 C2.34 1 1.68 1 1 1 C1 3.64 1 6.28 1 9 C-0.32 9.33 -1.64 9.66 -3 10 C-3.33 9.01 -3.66 8.02 -4 7 C-3.01 7 -2.02 7 -1 7 C-0.67 4.69 -0.34 2.38 0 0 Z " fill="#494748" transform="translate(305,158)"/>
<path d="M0 0 C1.65 0.99 3.3 1.98 5 3 C4.67 3.99 4.34 4.98 4 6 C2.35 5.67 0.7 5.34 -1 5 C-0.67 3.35 -0.34 1.7 0 0 Z " fill="#232021" transform="translate(152,160)"/>
<path d="M0 0 C0.99 0.33 1.98 0.66 3 1 C3 6 3 6 1 9 C1 7.35 1 5.7 1 4 C0.34 4 -0.32 4 -1 4 C-0.67 2.68 -0.34 1.36 0 0 Z " fill="#2E2A2B" transform="translate(131,145)"/>
<path d="M0 0 C-2.1875 2.0625 -2.1875 2.0625 -5 4 C-7.8125 3.75 -7.8125 3.75 -10 3 C-7.29536552 -0.8183075 -4.37912428 -0.24787496 0 0 Z " fill="#D0E4EF" transform="translate(205,114)"/>
<path d="M0 0 C2.97 0.495 2.97 0.495 6 1 C5.67 2.65 5.34 4.3 5 6 C3.02 4.68 1.04 3.36 -1 2 C-0.67 1.34 -0.34 0.68 0 0 Z " fill="#1479C1" transform="translate(90,95)"/>
<path d="M0 0 C0.66 0 1.32 0 2 0 C2.33 2.31 2.66 4.62 3 7 C0.6568787 6.74438677 -1.67843403 6.40729228 -4 6 C-4.33 5.34 -4.66 4.68 -5 4 C-3.35 4 -1.7 4 0 4 C0 2.68 0 1.36 0 0 Z " fill="#157ABE" transform="translate(149,91)"/>
<path d="M0 0 C2.66666667 2.66666667 5.33333333 5.33333333 8 8 C4.80869 8 3.54714915 7.86790938 1 6 C0.25 2.875 0.25 2.875 0 0 Z " fill="#1C79B9" transform="translate(159,79)"/>
<path d="M0 0 C2.475 0.495 2.475 0.495 5 1 C5 1.99 5 2.98 5 4 C3.35 4 1.7 4 0 4 C0 2.68 0 1.36 0 0 Z " fill="#E4E3E4" transform="translate(269,161)"/>
<path d="M0 0 C0.66 0.33 1.32 0.66 2 1 C2 1.99 2 2.98 2 4 C0.1875 5.75 0.1875 5.75 -2 7 C-2.99 6.67 -3.98 6.34 -5 6 C-3.35 4.02 -1.7 2.04 0 0 Z " fill="#E3F1F9" transform="translate(219,139)"/>
<path d="M0 0 C0.66 0.33 1.32 0.66 2 1 C0.515 3.475 0.515 3.475 -1 6 C-1.33 5.34 -1.66 4.68 -2 4 C-2.99 3.67 -3.98 3.34 -5 3 C-2.625 1.4375 -2.625 1.4375 0 0 Z " fill="#1374B5" transform="translate(332,139)"/>
<path d="M0 0 C0 0.66 0 1.32 0 2 C1.65 2 3.3 2 5 2 C5 2.33 5 2.66 5 3 C3.54364629 3.22174933 2.08477044 3.42698698 0.625 3.625 C-0.18710937 3.74101562 -0.99921875 3.85703125 -1.8359375 3.9765625 C-2.55007813 3.98429688 -3.26421875 3.99203125 -4 4 C-4.66 3.34 -5.32 2.68 -6 2 C-3 0 -3 0 0 0 Z " fill="#DBE8F0" transform="translate(329,136)"/>
<path d="M0 0 C0.99 0.33 1.98 0.66 3 1 C2.34 2.98 1.68 4.96 1 7 C-0.32 6.34 -1.64 5.68 -3 5 C-2.505 4.54625 -2.01 4.0925 -1.5 3.625 C0.22609337 2.12364481 0.22609337 2.12364481 0 0 Z " fill="#1679BE" transform="translate(142,127)"/>
<path d="M0 0 C2.86724686 0.57344937 3.8614515 0.8614515 6 3 C3.29120665 4.35439668 0.99066732 4.06501451 -2 4 C-1.34 3.67 -0.68 3.34 0 3 C0 2.01 0 1.02 0 0 Z " fill="#292627" transform="translate(109,124)"/>
<path d="M0 0 C0.33 0.66 0.66 1.32 1 2 C-0.11375 2.309375 -1.2275 2.61875 -2.375 2.9375 C-5.7945155 3.82326483 -5.7945155 3.82326483 -8 5 C-7.625 3.0625 -7.625 3.0625 -7 1 C-4.53721199 -0.231394 -2.7204945 -0.07159196 0 0 Z " fill="#D7E9F1" transform="translate(241,123)"/>
<path d="M0 0 C0.66 0 1.32 0 2 0 C1.67 3.63 1.34 7.26 1 11 C0.67 11 0.34 11 0 11 C-0.19406478 9.35492782 -0.38007935 7.70890406 -0.5625 6.0625 C-0.66691406 5.14597656 -0.77132812 4.22945313 -0.87890625 3.28515625 C-0.91886719 2.53105469 -0.95882812 1.77695313 -1 1 C-0.67 0.67 -0.34 0.34 0 0 Z " fill="#046FB4" transform="translate(214,121)"/>
<path d="M0 0 C-0.99 0 -1.98 0 -3 0 C-3 0.66 -3 1.32 -3 2 C-5.64 1.67 -8.28 1.34 -11 1 C-4.06930693 -2.71287129 -4.06930693 -2.71287129 0 0 Z " fill="#0273C0" transform="translate(210,112)"/>
<path d="M0 0 C2.475 0.495 2.475 0.495 5 1 C4.67 1.99 4.34 2.98 4 4 C2.68 4 1.36 4 0 4 C0 2.68 0 1.36 0 0 Z " fill="#EAE9E9" transform="translate(251,161)"/>
<path d="M0 0 C0 0.99 0 1.98 0 3 C-0.99 3.33 -1.98 3.66 -3 4 C-3.33 3.34 -3.66 2.68 -4 2 C-6.01669827 0.86649466 -6.01669827 0.86649466 -8 0 C-4.71303767 -0.79953138 -3.28976808 -1.09658936 0 0 Z " fill="#353333" transform="translate(259,160)"/>
<path d="M0 0 C1.98 0 3.96 0 6 0 C1.375 4 1.375 4 -2 4 C-1.34 2.68 -0.68 1.36 0 0 Z " fill="#201E1E" transform="translate(229,159)"/>
<path d="M0 0 C1.74627478 2.61941217 2.38722388 4.03824877 3 7 C2.360625 7.103125 1.72125 7.20625 1.0625 7.3125 C0.381875 7.539375 -0.29875 7.76625 -1 8 C-1.33 8.99 -1.66 9.98 -2 11 C-1.67 9.35 -1.34 7.7 -1 6 C-0.34 6 0.32 6 1 6 C0.67 4.02 0.34 2.04 0 0 Z " fill="#D6EBF7" transform="translate(306,137)"/>
<path d="M0 0 C0.66 0 1.32 0 2 0 C2 0.66 2 1.32 2 2 C2.66 2 3.32 2 4 2 C4.33 1.34 4.66 0.68 5 0 C5 0.99 5 1.98 5 3 C5.99 3.33 6.98 3.66 8 4 C5.69 4 3.38 4 1 4 C0.67 2.68 0.34 1.36 0 0 Z " fill="#E2EDF2" transform="translate(316,138)"/>
<path d="M0 0 C1.98 0 3.96 0 6 0 C6.33 1.98 6.66 3.96 7 6 C6.01 6.495 6.01 6.495 5 7 C4.54625 6.21625 4.0925 5.4325 3.625 4.625 C2.11571258 1.96301969 2.11571258 1.96301969 0 0 Z " fill="#DFF1F9" transform="translate(298,118)"/>
<path d="M0 0 C0.66 0.33 1.32 0.66 2 1 C2.625 3.5625 2.625 3.5625 3 6 C2.01 6.66 1.02 7.32 0 8 C-0.66 7.34 -1.32 6.68 -2 6 C-1.34 6 -0.68 6 0 6 C-0.2784375 4.7934375 -0.2784375 4.7934375 -0.5625 3.5625 C-0.706875 2.716875 -0.85125 1.87125 -1 1 C-0.67 0.67 -0.34 0.34 0 0 Z " fill="#1E1A1B" transform="translate(170,105)"/>
<path d="M0 0 C3 0 3 0 4.6875 1.375 C6 3 6 3 6 5 C4.35 4.67 2.7 4.34 1 4 C0.67 2.68 0.34 1.36 0 0 Z " fill="#ECF6F4" transform="translate(108,100)"/>
<path d="M0 0 C0.66 0 1.32 0 2 0 C2 0.66 2 1.32 2 2 C1.34 2 0.68 2 0 2 C0 1.34 0 0.68 0 0 Z M-1 2 C-0.01 2.66 0.98 3.32 2 4 C1.01 5.485 1.01 5.485 0 7 C-1.32 6.01 -2.64 5.02 -4 4 C-3.01 3.34 -2.02 2.68 -1 2 Z " fill="#E6F2F7" transform="translate(135,23)"/>
<path d="M0 0 C1.98 0.99 3.96 1.98 6 3 C6 3.66 6 4.32 6 5 C4.35 5 2.7 5 1 5 C0.67 3.35 0.34 1.7 0 0 Z " fill="#FBFBFB" transform="translate(320,164)"/>
<path d="M0 0 C3.3 0 6.6 0 10 0 C8.68 0.99 7.36 1.98 6 3 C2.75 2.1875 2.75 2.1875 0 1 C0 0.67 0 0.34 0 0 Z " fill="#1D81BF" transform="translate(196,107)"/>
<path d="M0 0 C2.03833424 1.2739589 4.03852126 2.61061923 6 4 C6 4.66 6 5.32 6 6 C4.02 5.34 2.04 4.68 0 4 C0 2.68 0 1.36 0 0 Z " fill="#E4F2F7" transform="translate(98,103)"/>
<path d="M0 0 C2.64 0.33 5.28 0.66 8 1 C8 1.33 8 1.66 8 2 C4.7 2.33 1.4 2.66 -2 3 C-1.34 2.01 -0.68 1.02 0 0 Z " fill="#F4FAFB" transform="translate(201,104)"/>
</svg>
